<?xml version="1.0" encoding="UTF-8"?>
<svg id="Camada_2" data-name="Camada 2" xmlns="http://www.w3.org/2000/svg" viewBox="0 0 925.11 419.84">
  <defs>
    <style>
      .cls-1 {
        fill: #ead6ba;
      }

      .cls-2 {
        fill: #e43a4f;
      }
    </style>
  </defs>
  <g id="Camada_1-2" data-name="Camada 1">
    <g>
      <path class="cls-2" d="m101.83.26C58.15.29,21.9,32.5,18.82,73.92l-.43,345.31,165.65.19.53-344.66C182.3,33.37,145.98.41,101.83.26Z"/>
      <path class="cls-2" d="m342.11.59c-43.71.03-79.87,32.25-83.04,73.72l-.4,345.25,165.71.28.4-344.66C422.51,33.71,386.13.74,342.11.59Z"/>
      <path class="cls-2" d="m823.74.26c-43.68.03-79.94,32.25-83.01,73.66l-.43,345.31,165.65.19.53-344.66C904.2,33.37,867.88.41,823.74.26Z"/>
      <path class="cls-2" d="m583.44,0c-43.74-.12-79.72,32.12-82.79,73.66l-.62,345.16,165.62.34.43-344.66C663.9,32.96,627.55,0,583.44,0Z"/>
      <path class="cls-1" d="m156.61,107.95v16.58c12.22,9.23,21.88,20.64,28.96,34.23,7.09,13.59,10.63,28.18,10.63,43.78,0,17.68-4.39,34-13.16,48.95-8.78,14.95-20.7,26.79-35.79,35.49-15.08,8.71-31.46,13.07-49.15,13.07s-34.06-4.35-49.15-13.07c-15.08-8.71-27.01-20.54-35.79-35.49-8.78-14.95-13.16-31.27-13.16-48.95,0-22.75,7.15-42.94,21.45-60.56,14.3-17.62,32.25-29.03,53.83-34.23,2.21-.65,3.32.19,3.32,2.54v34.71c0,1.56-.78,2.73-2.34,3.51-11.18,4.55-20.41,11.67-27.69,21.36-7.28,9.69-10.92,20.57-10.92,32.67,0,15.99,6.05,29.74,18.14,41.25,12.09,11.51,26.2,17.26,42.32,17.26s30.23-5.75,42.32-17.26c12.09-11.51,18.14-25.26,18.14-41.25,0-6.11-1.82-12.61-5.46-19.5h-30.03c-1.95,0-2.93-.98-2.93-2.93v-72.16c0-1.95.98-2.92,2.93-2.92h30.62c1.95,0,2.93.97,2.93,2.92Z"/>
      <path class="cls-1" d="m436.25,141.3h-75.09v122.48h75.09c1.95,0,2.92.97,2.92,2.92v30.42c0,1.95-.97,2.93-2.92,2.93h-189.17c-1.95,0-2.93-.97-2.93-2.93v-30.42c0-1.95.97-2.92,2.93-2.92h75.08v-122.48h-75.08c-1.95,0-2.93-.97-2.93-2.92v-30.42c0-1.95.97-2.92,2.93-2.92h189.17c1.95,0,2.92.97,2.92,2.92v30.42c0,1.95-.97,2.92-2.92,2.92Z"/>
      <path class="cls-1" d="m485.33,291.05v-36.12c0-1.81.78-2.98,2.36-3.5l75.65-32.21v-75.08h-75.08c-1.95,0-2.93-.97-2.93-2.93v-33.15c0-1.95.97-2.92,2.93-2.92h189.17c1.95,0,2.92.97,2.92,2.92v128.33c0,16.25-5.72,30.06-17.16,41.44-11.44,11.38-25.23,17.06-41.35,17.06-11.98,0-22.81-3.26-32.51-9.79-9.7-6.53-16.82-15.14-21.38-25.85l-79.18,33.93c-2.3,1.04-3.45.33-3.45-2.14Zm121.21-40.63c4.61,3.64,9.72,5.46,15.31,5.46s10.69-1.82,15.31-5.46c4.61-3.64,6.92-8.32,6.92-14.04v-92.25h-44.47v92.25c0,5.72,2.31,10.4,6.92,14.04Z"/>
      <path class="cls-1" d="m821.19,91.86c-57.39,0-103.91,46.52-103.91,103.91s46.52,103.91,103.91,103.91,103.91-46.52,103.91-103.91-46.52-103.91-103.91-103.91Zm0,143.93c-22.1,0-40.02-17.92-40.02-40.02s17.92-40.02,40.02-40.02,40.02,17.92,40.02,40.02-17.92,40.02-40.02,40.02Z"/>
    </g>
  </g>
</svg>