<svg xmlns="http://www.w3.org/2000/svg" viewBox="0 0 61.84 61.84"><defs><style>.cls-1{fill:#d63b50;}.cls-2{fill:#fff;fill-rule:evenodd;}</style></defs><g id="Camada_2" data-name="Camada 2"><g id="Camada_1-2" data-name="Camada 1"><circle class="cls-1" cx="30.92" cy="30.92" r="30.92" transform="translate(-6 54.36) rotate(-77.41)"/><path class="cls-2" d="M21.83,11.22H40A10.7,10.7,0,0,1,50.67,21.87V40A10.7,10.7,0,0,1,40,50.62H21.83A10.7,10.7,0,0,1,11.18,40V21.87A10.7,10.7,0,0,1,21.83,11.22ZM41.52,18.1h0a2.3,2.3,0,0,1,2.27,2.27h0a2.3,2.3,0,0,1-2.27,2.26h0a2.23,2.23,0,0,1-2.26-2.26h0a2.23,2.23,0,0,1,2.26-2.27ZM30.87,20.18H31A10.86,10.86,0,0,1,41.71,30.92h0A10.79,10.79,0,0,1,31,41.66h-.1A10.72,10.72,0,0,1,20.22,30.92h0A10.78,10.78,0,0,1,30.87,20.18Zm0,3.67H31A7.13,7.13,0,0,1,38,30.92h0A7.14,7.14,0,0,1,31,38.08h-.1a7.13,7.13,0,0,1-7.06-7.16h0a7.12,7.12,0,0,1,7.06-7.07Zm-8.95-9.23h18A7.36,7.36,0,0,1,47.27,22v17.9a7.36,7.36,0,0,1-7.35,7.36h-18a7.36,7.36,0,0,1-7.35-7.36V22a7.36,7.36,0,0,1,7.35-7.35Z"/></g></g></svg>