<?xml version="1.0" encoding="UTF-8"?>
<svg id="Camada_2" data-name="Camada 2" xmlns="http://www.w3.org/2000/svg" viewBox="0 0 296.07 340.91">
  <defs>
    <style>
      .cls-1 {
        fill: #ead6ba;
      }
    </style>
  </defs>
  <g id="Camada_1-2" data-name="Camada 1">
    <g>
      <rect class="cls-1" x="221.44" y="88.13" width="44.07" height="16.03"/>
      <polygon class="cls-1" points="50.41 75.07 32.06 75.07 0 2.74 22.78 2.74 41.34 49.56 60.11 2.74 82.46 2.74 50.41 75.07"/>
      <path class="cls-1" d="m128.43,14.13c-6.33,0-12.02,3.8-13.92,13.92h25.52s.21-1.26.21-2.95c0-6.11-4.01-10.97-11.81-10.97m1.48,63.27c-23.83,0-39.44-16.66-39.44-39.01S108.18,0,128.22,0C146.99,0,161.75,12.44,161.75,29.53c0,3.37-.63,7.8-1.27,10.33h-46.82c0,10.55,5.06,21.09,22.78,21.09,7.59,0,15.39-2.95,21.09-7.38l5.9,11.6c-8.23,7.38-20.04,12.23-33.53,12.23"/>
      <path class="cls-1" d="m207.92,37.54v37.12h-23.62V4.22l21.51-2.32,1.27,13.71c4.64-8.64,14.13-15.6,26.36-15.6v22.78c-12.86-3.8-25.52,2.53-25.52,14.76"/>
      <path class="cls-1" d="m34.5,173.08v22.04c3.14,5.46,9.84,10.28,17.8,10.28,10.05,0,17.38-7.55,17.38-21.41s-7.33-21.2-17.38-21.2c-7.96,0-14.66,4.83-17.8,10.28m24.5,49.54c-8.79,0-20.1-3.36-25.76-11.76l-5.03,9.65H11.05v-126.57l23.46-2.52v64.02c6.28-6.93,15.92-9.86,24.5-9.86,19.48,0,34.14,16.37,34.14,38.41s-14.66,38.62-34.14,38.62"/>
      <path class="cls-1" d="m151.41,162.6c-11.18,0-18.77,8.44-18.77,21.51s7.59,21.72,18.77,21.72,18.77-8.43,18.77-21.72-7.38-21.51-18.77-21.51m0,60.74c-23.62,0-42.39-16.87-42.39-39.23s18.77-39.01,42.39-39.01,42.39,16.66,42.39,39.01-18.98,39.23-42.39,39.23"/>
      <g>
        <path class="cls-1" d="m273.67,272.96c-2.89,12.28-8.03,14.11-10.85,14.11-.71,0-1.72-1.35-2.38-3.21-1.98-5.5-1.32-12.17,1.53-15.5,1.19-1.39,2.68-2.1,4.42-2.1,5.14,0,7.03,3.84,7.37,4.63-.02.41-.08,1.43-.09,2.06m-81.41-5.67c1.07-1.15,2.59-1.73,4.52-1.73,1.36,0,2.53.86,2.94,1.63.72,1.35.89,3.19.21,5.2-.5,1.46-3.01,6.98-7.47,9.58-4.11-7.15-1.95-12.79-.19-14.67m-18.29-23.88c2.13-4.25,6.94-7.18,8.67-6.61.69.23,1.36.79,1.31,1.77-.37,6.63-6.84,23.46-11.72,34.02-3.95-9.75-4.07-17.57,1.74-29.18m-116.28,23.88c1.07-1.15,2.6-1.74,4.53-1.74v-.88l.04.88c1.34.01,2.15.47,2.48,1.4.79,2.2-.35,4.19-1.45,5.47-1.95,2.28-4.92,3.76-7.06,4.08-.84-3.9-.31-7.3,1.46-9.2m-23.72,8.73c-.08.58-1.78,11.91-8.48,11.91-.63,0-1.73-1.01-2.75-3.87-1.43-3.98-1.56-12.02,1.96-16.14,1.37-1.61,3.18-2.42,5.36-2.42,2.43,0,4.21.69,5.2,1.22-.78,2.26-1.16,7.51-1.28,9.3m-4.98,60.06c-.95.83-2.01,1.24-3.23,1.24-3.07,0-7.71-3.4-9.35-7.95-4.68-13.01,5.14-20.81,17.94-28.68.25,11.37.4,30.31-5.37,35.39m265.14-47.75c-4.17,0-7.38-1.02-9.54-3.02-4.49-4.16-3.87-11.63-3.49-16.09.16-1.9.23-2.84.01-3.44-.6-1.66-2.49-3.06-4.12-3.06-.74,0-1.37.28-1.75.77-.24.28-.51,1.35-.73,2.35-1.59-1.39-4.47-3.17-8.77-3.17s-7.76,1.49-10.17,4.31c-3.33,3.9-4.23,10.04-2.33,15.74-1.61,1.77-4.71,4.35-9.02,4.35-3.18,0-7.35-.74-11.03-1.4-2.86-.51-5.38-.96-7.29-1.07,1.35-1.69,2.83-3.59,4.28-5.54.68.37,1.67.93,2.61,1.56.19.12.43.19.69.19.51,0,1.49-.28,2-.87.32-.37.4-.81.25-1.23-.2-.57-2.06-1.75-3.44-2.45,2.03-2.86,6.12-8.92,5.18-11.54-.23-.64-1.22-2.05-2.66-2.05-.41,0-.98.12-1.52.63h-.05c-.51,0-1.43-.06-2.59-.14-2.56-.17-6.43-.43-11.37-.43-2.67,0-6.18.38-7.75,2.21-.83.97-.99,2.17-.49,3.58.28.79,1.79,1.36,2.68,1.36.71,0,1.08-.31,1.24-.5.2-.24.4-.66.17-1.3-.19-.52-.02-.72.05-.79.3-.35,1.41-.95,5.42-.95,2.22,0,4.73.18,6.95.33,1.03.07,1.97.14,2.82.19-1.52,1.91-3.42,4.37-5.28,6.92-.69-.1-1.39-.15-2.09-.15-5.61,0-9.59,3.66-13.44,7.2-3.49,3.22-6.8,6.25-10.94,6.25-2.65,0-3.46-1.1-4.69-3.11,4.45-2.36,6.78-5.38,8.63-8.98,1.48-2.89,1.81-5.69.75-8.65-.93-2.59-3.8-4.34-7.17-4.37h-.05c-4.48,0-6.67,1.26-8.85,3.62-3.83,4.15-2.6,10.44-2.33,11.63,0,0,.91,3.83,2.67,6.01.17.26.35.52.53.76-7.67,3.96-11.66-2.43-13.19-5.91.33-.66,1.08-1.88,1.69-3.16,3.99-8.39,12.63-28.55,11-37.23-.41-2.17-1.46-3.55-3.14-4.1-2.75-.91-8.32,1.74-12.54,7.63-10.72,14.97-5.04,27.8-2.61,33.28.35.79.71,1.59.87,2.1-6.91,12.34-11.05,10.47-11.05,10.47-4.04,0-4.67-6.27-5.28-12.33-.33-3.26-.64-6.33-1.47-8.65-.48-1.33-2.52-3.31-4.37-3.31-.7,0-1.31.28-1.71.78l-.12.15-.04.18c-1.42,6.45-6.88,23.18-14.92,23.18-.53,0-.98-.2-1.42-.62-3.86-3.73-2.74-20.5-1.87-27.68.81.05,2.02.1,3.38.1,4.83,0,7.7-.64,8.76-1.96.49-.62.93-1.68.58-2.66-.3-.85-1.39-1.22-2.34-1.22-.67,0-1.21.2-1.51.55-.23.27-.31.62-.2.96-.2.15-1.31.75-6.05.75-.89,0-1.7-.02-2.3-.05.21-2.46.5-6.57.19-7.44-.49-1.36-1.92-2.94-4.37-2.94-.54,0-1.06.23-1.38.6-.31.37-.41.84-.26,1.26.34.95-.15,5-.67,8.02-4.69-.57-24.69-2.93-35.12-2.93-4.21,0-7.2.9-8.65,2.59-.95,1.11-1.17,2.49-.63,3.99l.23.63.77-.02c.95-.02,2.19-.18,2.71-.81.25-.3.32-.68.19-1.04,0-.02-.03-.08.09-.22.65-.76,3.29-1.58,7.54-1.58,7.71,0,27.63,2.33,32.29,2.89l-1.69,12.42c-1.28,6.34-4.95,16.37-9.33,16.37-3.39,0-3.62-5.68-3.85-11.18-.27-6.49-.54-13.2-6.13-13.2-4.46,0-8.68,2.95-12.57,8.77.26-3.02.15-5.17-.34-6.53-.5-1.38-2.33-2.21-3.81-2.21-.44,0-.84.07-1.18.21-.29.12-.81.43-.94,1.19-.36,2.35-3.91,22.97-17.29,22.97-2.52,0-5.23-3.46-6.74-7.03,2.76-.5,7.32-2.32,9.9-5.34,2.08-2.44,2.61-5.33,1.52-8.37-.94-2.61-3.84-4.37-7.21-4.37-4.69,0-8.19,1.31-10.4,3.9-2.83,3.32-2.72,7.81-2.2,10.44-.53-.18-.89-.35-.89-.35-.22-.1-.47-.16-.72-.16-.79,0-1.55.5-1.83,1.19-.28.71.02,1.45.8,1.95.21.14,1.84.87,3.77,1.24.98,4.45-5.87,9.56-8.98,11.62-.54-8.99-.67-22.44,1.12-24.68.66-.84-.19-2.31-.37-2.6-.69-1.12-1.69-1.76-2.74-1.76-.96,0-1.64.48-2.13,1-1.61-.81-4.23-1.79-7.54-1.79-4.74,0-8.66,1.64-11.34,4.74-3.51,4.06-4.57,10.58-2.63,16.21,1.82,5.31,5.97,8.61,10.83,8.61,3.71,0,6.22-2.02,7.75-3.9l.19,8.54c-.51.41-1.78,1.15-3.01,1.86-7.51,4.36-25.1,14.56-18.89,31.86,2.44,6.8,9.21,11.01,14.07,11.01,2.96,0,5.54-.96,7.66-2.86,8.49-7.59,7.61-28.81,7.24-37.87-.06-1.55-.12-3.02-.1-3.64,1.88-1.07,9.83-5.85,12.32-11.21,1.85,2.05,5.67,5.33,11.21,5.33,5.86,0,10.84-2.84,14.6-8.27-.06,2.59.1,5.01.77,6.86.23.64,1.26,1.36,2.29,1.36.64,0,1.21-.26,1.59-.75l.1-.12.05-.14c1.95-6.2,8.29-21.87,15.05-23.2,0,.64-.04,1.58-.08,2.44-.24,5.12-.68,14.66,4.36,19.19,1.9,1.7,4.38,2.57,7.4,2.57,5.24,0,8.03-4.39,9.69-8.24.73,2.32,1.83,4.12,3.33,5.48,2.08,1.88,4.78,2.83,8.03,2.83,6.72,0,11.42-6.7,14.5-13.67.48,3.34,1.73,7.75,4.95,10.65,2.22,2,5.07,3.02,8.47,3.02,4.11,0,9.58-3.73,12.76-9.35,4.26,10.24,12.54,7.32,17.11,4.67,2.63,2.96,5.72,4.69,9.6,4.69,5.65,0,9.72-3.71,13.66-7.3,3.17-2.88,6.17-5.62,9.65-6.09-3.45,5.01-6.02,9.31-5.09,11.9.25.7,1.19,1.43,2.33,1.43.89,0,1.43-.53,1.85-.96.63-.64,1.43-1.44,3.93-1.44,1.42,0,4.25.48,7.25.99,4.07.69,8.69,1.47,11.97,1.47,4.7,0,8.17-2.05,10.45-4.08,1.21,1.5,3.88,4.03,8.1,4.03s7.61-2.02,10.24-5.84c.72-1.05,1.28-2.09,1.69-2.99.88,1.9,2.11,3.61,3.63,5.01,3.69,3.41,9,5.14,15.8,5.14.48,0,.9-.23,1.12-.62.11-.2.17-.43.17-.7,0-.95-.68-2.26-1.95-2.26"/>
        <path class="cls-1" d="m151.83,257.24c1.28-.55,1.6-2.22.73-3.72-.88-1.5-2.62-2.27-3.9-1.72-1.28.55-1.6,2.22-.73,3.72.88,1.5,2.62,2.27,3.9,1.72"/>
      </g>
    </g>
  </g>
</svg>