<svg xmlns="http://www.w3.org/2000/svg" viewBox="0 0 61.84 61.84"><defs><style>.cls-1{fill:#d63b50;}.cls-2{fill:#fff;}.cls-2,.cls-3{fill-rule:evenodd;}.cls-3{fill:#231f20;}</style></defs><g id="Camada_2" data-name="Camada 2"><g id="Camada_1-2" data-name="Camada 1"><circle class="cls-1" cx="30.92" cy="30.92" r="30.92"/><path class="cls-2" d="M19.57,17.84c3.7-.3,8.07-.45,11.4-.45h0c3.33,0,7.63.15,11.4.45,4.37.37,6.59,1.11,7.19,5.48A56.35,56.35,0,0,1,50,30.87h0a55.41,55.41,0,0,1-.44,7.55c-.6,4.45-2.82,5.11-7.19,5.48-3.77.37-8.07.45-11.4.45h0c-3.33,0-7.7-.08-11.4-.45-4.37-.37-6.67-1-7.26-5.48a71.69,71.69,0,0,1-.37-7.55h0a73,73,0,0,1,.37-7.55c.59-4.37,2.89-5.11,7.26-5.48Z"/><polygon class="cls-3" points="27.12 25.17 37.04 30.87 27.12 36.65 27.12 25.17"/></g></g></svg>