<svg xmlns="http://www.w3.org/2000/svg" viewBox="0 0 104.47 98.47"><defs><style>.cls-1{font-size:13.74px;font-family:BarlowSemiCondensed-Regular, BarlowSemiCondensed Regular;letter-spacing:0.05em;}.cls-2{fill:#003e74;}.cls-3{fill:#fff;}</style></defs><g id="Camada_2" data-name="Camada 2"><g id="Camada_1-2" data-name="Camada 1"><text class="cls-1" transform="translate(1.37 11.5)">Apresentação</text><path class="cls-2" d="M78.73,91h2.15l-2.15-6.5-.14-.44-2,6.94Zm0-11.21h2.79l6.77,18.42H83l-1-3.39H75.41l-.91,3.39H69.29l6.38-18.42Zm-17.27,14c1.73-.42,2.87-1.8,2.79-4.85-.08-2.87-1.12-4.21-2.79-4.65a6,6,0,0,0-1.22-.18H58.66v9.8h1.52a6.62,6.62,0,0,0,1.28-.12m0-13.89a8.43,8.43,0,0,1,4.07,1.42A9.65,9.65,0,0,1,69.44,89,9.16,9.16,0,0,1,65,97.18a10.5,10.5,0,0,1-3.49,1,18.92,18.92,0,0,1-2.2.1H53.77V79.8H60.2c.42,0,.84,0,1.26.08m-17.69-.06A8,8,0,0,1,48.5,81a5.52,5.52,0,0,1,2.18,4.59,5,5,0,0,1-4.23,5.26l5.33,7.35h-6l-2-3.17-2.23-3.52v6.69H36.71V79.8h5.71l1.35,0m0,8.64a2.39,2.39,0,0,0,0-4.77,7.86,7.86,0,0,0-1.19,0h-1v4.73l1.54,0a4,4,0,0,0,.69,0M89,79.8l0,11.54c0,4.46,2.72,7,7.73,6.9,4.86-.1,7.28-2.24,7.69-6.86V79.8H99.6v11a2.63,2.63,0,0,1-2.82,3.1,2.59,2.59,0,0,1-2.91-3.1v-11ZM21.59,98.24H34.06V94.29H26.53V90.74h6.34V86.92H26.55V83.8h7.51v-4H21.59Zm-7.33,0h4.2V87.67H9.38V91.3l4.7,0C13.17,93,12,94.51,9.8,94.49,7.42,94.61,5.08,92.61,5,89.3c-.1-3.59,2.4-5.5,4.62-5.42a3.82,3.82,0,0,1,3.51,2.3l4.3-2A8.65,8.65,0,0,0,9.8,79.68C4.42,79.64.18,83,0,89.1a9.23,9.23,0,0,0,8.61,9.36,6.62,6.62,0,0,0,5.65-2.26Z"/><rect class="cls-2" x="29.97" y="27.82" width="44.54" height="43.94"/><path class="cls-3" d="M52,66.91H48.8V65.39a7.37,7.37,0,0,1-5.17,2c-6.18,0-9.27-5.07-9.27-9.43s3.06-9.44,9.18-9.44A9.44,9.44,0,0,1,52,54L49.2,55.63S47.29,52,43.6,52a5.92,5.92,0,0,0,.06,11.83,5.6,5.6,0,0,0,4.71-2.54H43.63V57.93H52Z"/><path class="cls-3" d="M52.54,57.93h8.37V61.3H56.17a5.6,5.6,0,0,0,4.71,2.54A5.92,5.92,0,0,0,60.94,52c-3.69,0-5.6,3.62-5.6,3.62L52.57,54A9.46,9.46,0,0,1,61,48.5c6.12,0,9.19,5.08,9.19,9.44a9.19,9.19,0,0,1-9.28,9.43,7.37,7.37,0,0,1-5.17-2v1.52h-3.2Z"/></g></g></svg>