<svg xmlns="http://www.w3.org/2000/svg" viewBox="0 0 214.5 22.81"><defs><style>.cls-1{fill:#333;}</style></defs><g id="Camada_2" data-name="Camada 2"><g id="Camada_1-2" data-name="Camada 1"><path class="cls-1" d="M141.25,10.63l.64-8.23a4.68,4.68,0,0,1,.62,0,4.27,4.27,0,0,1,.61,0l1.37,4.24c.08.2.17.52.29,1s.19.71.21.8h.06a13.42,13.42,0,0,1,.49-1.76l1.39-4.24a4.67,4.67,0,0,1,1.22,0l.64,8.23a1.76,1.76,0,0,1-.46.06,2.12,2.12,0,0,1-.44,0l-.35-5q0-.54-.09-2.28h-.06l-1.91,6a3.26,3.26,0,0,1-.48.05,2.37,2.37,0,0,1-.43-.05l-1.91-6h-.06c0,.2,0,.58,0,1.14s0,.94-.06,1.14l-.34,5a2.25,2.25,0,0,1-.46,0,1.58,1.58,0,0,1-.45-.06"/><path class="cls-1" d="M150.57,10.64V2.4a2.45,2.45,0,0,1,.44,0,3.32,3.32,0,0,1,.48,0v8.24a3.32,3.32,0,0,1-.48,0,2.45,2.45,0,0,1-.44,0"/><path class="cls-1" d="M159.1,2.36l.07.07v8.21a4.22,4.22,0,0,1-.57,0,4.48,4.48,0,0,1-.57,0L155.1,5.17c-.25-.45-.52-1-.83-1.66h0c0,1.5.07,2.37.07,2.61v4.52a4.2,4.2,0,0,1-.44,0,3.29,3.29,0,0,1-.42,0V2.4a4,4,0,0,1,.55,0,4.66,4.66,0,0,1,.58,0l2.93,5.46q.28.53.84,1.71h0c-.06-1-.08-1.95-.08-2.76V3a.81.81,0,0,1,.09-.47.45.45,0,0,1,.39-.14Z"/><path class="cls-1" d="M161.13,10.64V2.4a2.45,2.45,0,0,1,.44,0,3.06,3.06,0,0,1,.47,0v8.24a3.06,3.06,0,0,1-.47,0,2.45,2.45,0,0,1-.44,0"/><path class="cls-1" d="M163.29,9.88a1,1,0,0,1,.42-.74,4.27,4.27,0,0,0,2.41.84,2.19,2.19,0,0,0,1.35-.37,1.16,1.16,0,0,0,.5-1c0-.62-.43-1.12-1.28-1.5l-1.41-.62a2.21,2.21,0,0,1-1.63-2,2,2,0,0,1,.19-.87,2.2,2.2,0,0,1,.54-.71,2.65,2.65,0,0,1,.82-.48,3.1,3.1,0,0,1,1.08-.18,5.58,5.58,0,0,1,2.38.58,1,1,0,0,1-.37.78,5.78,5.78,0,0,0-1.09-.44,3.51,3.51,0,0,0-.92-.13,2.19,2.19,0,0,0-.7.11,2,2,0,0,0-.53.28,1.31,1.31,0,0,0-.34.41,1.07,1.07,0,0,0-.12.49,1.08,1.08,0,0,0,.31.83,2.75,2.75,0,0,0,.86.52l1.36.59c1.2.53,1.8,1.25,1.8,2.19a2.15,2.15,0,0,1-.71,1.68,3.22,3.22,0,0,1-2.21.64,4.5,4.5,0,0,1-2.71-.9"/><path class="cls-1" d="M173.07,3.2l-.66,0v7.46a2.92,2.92,0,0,1-.46,0,3,3,0,0,1-.46,0V3.18l-.65,0h-1.55a2.8,2.8,0,0,1,0-.4,3,3,0,0,1,0-.4h5.3a.94.94,0,0,1,.07.39c0,.27-.19.41-.57.41Z"/><path class="cls-1" d="M176.48,9.39v.47l.75,0h3.3a3.53,3.53,0,0,1,0,.39.53.53,0,0,1-.59.42h-3.8a.5.5,0,0,1-.38-.16.63.63,0,0,1-.14-.44V2.47l.07-.07h4.66a3.63,3.63,0,0,1,0,.38,1.33,1.33,0,0,1-.06.42h-3.81V6.08h3.22a2.85,2.85,0,0,1,0,.4,2.58,2.58,0,0,1,0,.38h-3.22Zm.46-8L179.24,0a1.09,1.09,0,0,1,.46.81l-2.47,1a.72.72,0,0,1-.29-.51"/><path class="cls-1" d="M182,2.4l2.44,0a2.75,2.75,0,0,1,1.93.63A2.26,2.26,0,0,1,187,4.75a2.28,2.28,0,0,1-.42,1.4,2.07,2.07,0,0,1-1.15.8,1.5,1.5,0,0,1,.8,1l.63,1.63a4.62,4.62,0,0,0,.26.54,1.08,1.08,0,0,0,.26.31.7.7,0,0,1-.64.3.53.53,0,0,1-.39-.13,1.49,1.49,0,0,1-.27-.47l-.7-1.84a2.34,2.34,0,0,0-.49-.82,1.14,1.14,0,0,0-.84-.29h-1.25v3.48a3.57,3.57,0,0,1-.47,0,2.68,2.68,0,0,1-.45,0V2.47Zm.85.71v3.3l.62,0h.87a2.25,2.25,0,0,0,.84-.13,1.63,1.63,0,0,0,.54-.35,1.4,1.4,0,0,0,.29-.52,2.59,2.59,0,0,0,.08-.63,2.53,2.53,0,0,0-.08-.63,1.32,1.32,0,0,0-.29-.52,1.45,1.45,0,0,0-.55-.35,2.68,2.68,0,0,0-.87-.12h-.86l-.59,0"/><path class="cls-1" d="M188.63,10.64V2.4a2.45,2.45,0,0,1,.44,0,3.06,3.06,0,0,1,.47,0v8.24a3.06,3.06,0,0,1-.47,0,2.45,2.45,0,0,1-.44,0"/><path class="cls-1" d="M192.28,10.08A4.51,4.51,0,0,1,191,6.53a6.83,6.83,0,0,1,.21-1.75,4.21,4.21,0,0,1,.63-1.35,2.86,2.86,0,0,1,1-.87,3.09,3.09,0,0,1,1.39-.31,2.94,2.94,0,0,1,1.45.35,3,3,0,0,1,1,.93,4.1,4.1,0,0,1,.59,1.36,6.54,6.54,0,0,1,.19,1.62,6.84,6.84,0,0,1-.2,1.75,4,4,0,0,1-.63,1.35,2.86,2.86,0,0,1-1,.87,3.1,3.1,0,0,1-1.4.3,2.81,2.81,0,0,1-2-.7m-.2-4.79a3.78,3.78,0,0,0-.08.6c0,.21,0,.41,0,.62a8,8,0,0,0,.09,1.16,3.85,3.85,0,0,0,.32,1.14,2.27,2.27,0,0,0,.69.87,2,2,0,0,0,2.63-.27,2.05,2.05,0,0,0,.4-.63,5.15,5.15,0,0,0,.24-.76,5.29,5.29,0,0,0,.13-.78c0-.26,0-.5,0-.73a8.15,8.15,0,0,0-.09-1.15,4,4,0,0,0-.33-1.13,2.27,2.27,0,0,0-.69-.87A1.82,1.82,0,0,0,194.25,3a2.06,2.06,0,0,0-.93.19,1.82,1.82,0,0,0-.63.53,2.28,2.28,0,0,0-.39.72,7.79,7.79,0,0,0-.22.83"/><path class="cls-1" d="M205.65,10.07a1.8,1.8,0,0,1-.41.26,2.82,2.82,0,0,1-.51.19,2.86,2.86,0,0,1-.55.12,3,3,0,0,1-.47,0h-.85l-1.69,0-.07-.07V2.47l.07-.07c.7,0,1.52,0,2.45,0a3.35,3.35,0,0,1,1.57.33,2.72,2.72,0,0,1,1,.89,3.55,3.55,0,0,1,.53,1.32,7.8,7.8,0,0,1,.16,1.64c0,.4,0,.77,0,1.11a5.13,5.13,0,0,1-.2.95,3.49,3.49,0,0,1-.39.8,2.92,2.92,0,0,1-.6.67M202,9.92h1.59a2,2,0,0,0,1.84-1,3.28,3.28,0,0,0,.36-1,6,6,0,0,0,.1-1.11,13.54,13.54,0,0,0-.08-1.49,3.35,3.35,0,0,0-.35-1.17,1.87,1.87,0,0,0-.74-.76,2.13,2.13,0,0,0-1.13-.28H202Z"/><path class="cls-1" d="M209.1,10.08a4.51,4.51,0,0,1-1.28-3.55A6.83,6.83,0,0,1,208,4.78a4.19,4.19,0,0,1,.62-1.35,3,3,0,0,1,1-.87,3.12,3.12,0,0,1,1.39-.31,2.91,2.91,0,0,1,1.45.35,3,3,0,0,1,1,.93,4.11,4.11,0,0,1,.6,1.36,6.54,6.54,0,0,1,.19,1.62,6.83,6.83,0,0,1-.21,1.75,4.19,4.19,0,0,1-.62,1.35,3,3,0,0,1-1,.87,3.15,3.15,0,0,1-1.41.3,2.79,2.79,0,0,1-2-.7m-.21-4.79a3.79,3.79,0,0,0-.07.6c0,.21,0,.41,0,.62a7.9,7.9,0,0,0,.08,1.16,4.18,4.18,0,0,0,.33,1.14,2.27,2.27,0,0,0,.69.87,1.82,1.82,0,0,0,1.16.34,1.9,1.9,0,0,0,.85-.17,1.84,1.84,0,0,0,.61-.44,2.08,2.08,0,0,0,.41-.63,5.15,5.15,0,0,0,.24-.76,7,7,0,0,0,.13-.78c0-.26,0-.5,0-.73a9.83,9.83,0,0,0-.08-1.15,4,4,0,0,0-.33-1.13,2.47,2.47,0,0,0-.69-.87A1.83,1.83,0,0,0,211.06,3a2,2,0,0,0-.92.19,2,2,0,0,0-.64.53,2.47,2.47,0,0,0-.38.72,6,6,0,0,0-.23.83"/><path class="cls-1" d="M171.92,16.63v6a4.79,4.79,0,0,1-.81.06,5,5,0,0,1-.82-.06v-6.9l-.73,0h-1.34a3.88,3.88,0,0,1,0-1.36H174a2.71,2.71,0,0,1,.08.66.64.64,0,0,1-.2.52,1,1,0,0,1-.67.18h-.57l-.73,0Z"/><path class="cls-1" d="M180.85,14.4v5.28A3.12,3.12,0,0,1,180,22a3.76,3.76,0,0,1-4.66,0,3.11,3.11,0,0,1-.82-2.32V14.42l.07-.09h.61a.94.94,0,0,1,.72.25,1.15,1.15,0,0,1,.23.79v4.32c0,1.22.5,1.83,1.52,1.83s1.53-.61,1.53-1.83V14.4a5.57,5.57,0,0,1,1.63,0"/><path class="cls-1" d="M187.94,16.89a2.31,2.31,0,0,1-.12.75,2,2,0,0,1-.32.64,2.23,2.23,0,0,1-.47.5,2.16,2.16,0,0,1-.6.32,1.09,1.09,0,0,1,.53.37,2.77,2.77,0,0,1,.37.69l.44,1.21a2.3,2.3,0,0,0,.24.52,1.31,1.31,0,0,0,.33.37,1.24,1.24,0,0,1-.45.35,1.78,1.78,0,0,1-.67.13.74.74,0,0,1-.57-.22,1.87,1.87,0,0,1-.4-.73l-.51-1.44a1.53,1.53,0,0,0-.4-.64,1,1,0,0,0-.73-.23h-.73v3.16l-.38,0a3.17,3.17,0,0,1-.45,0,4.58,4.58,0,0,1-.78-.06V14.46l.08-.07,1.66,0,1.1,0a3.1,3.1,0,0,1,2.06.65,2.37,2.37,0,0,1,.77,1.9m-4.06-1.32v2.66c.41,0,.78,0,1.1,0a1.15,1.15,0,0,0,1.3-1.3,1.15,1.15,0,0,0-1.3-1.3h-.64l-.46,0"/><path class="cls-1" d="M189.17,22.64V14.4a4.27,4.27,0,0,1,.8-.06,5,5,0,0,1,.83.06v8.24a5,5,0,0,1-.83.06,4.27,4.27,0,0,1-.8-.06"/><path class="cls-1" d="M191.62,21.92a1.81,1.81,0,0,1,.22-.68,1.91,1.91,0,0,1,.43-.55,4.51,4.51,0,0,0,2.44.79,1.41,1.41,0,0,0,.91-.27.83.83,0,0,0,.34-.68c0-.46-.32-.83-.93-1.1l-1.42-.6a3,3,0,0,1-1.27-.9,2,2,0,0,1-.42-1.26,2.31,2.31,0,0,1,.21-1,2.2,2.2,0,0,1,.6-.76,2.87,2.87,0,0,1,.93-.5,3.5,3.5,0,0,1,1.19-.18,5.65,5.65,0,0,1,2.61.66,1.78,1.78,0,0,1-.57,1.23,5.15,5.15,0,0,0-2.12-.57,1.37,1.37,0,0,0-.89.26.83.83,0,0,0-.31.65c0,.37.29.67.86.91l1.42.61a3.18,3.18,0,0,1,1.34,1,2.14,2.14,0,0,1,.47,1.36,2.59,2.59,0,0,1-.19,1,2.09,2.09,0,0,1-.59.8,2.71,2.71,0,0,1-1,.51,4.43,4.43,0,0,1-1.38.19,5.26,5.26,0,0,1-2.91-.89"/><path class="cls-1" d="M198.36,22.62l.64-8.2a6,6,0,0,1,1.07-.09,5.52,5.52,0,0,1,1,.09l.93,3.34c.25,1,.4,1.68.46,2.06h.08c.06-.38.21-1.07.46-2.06l.92-3.34a6.29,6.29,0,0,1,2.12,0l.64,8.2a3,3,0,0,1-.78.08,5.28,5.28,0,0,1-.75,0L205,18.78c-.06-1-.1-1.87-.1-2.62h-.08l-1.41,5.25a5.77,5.77,0,0,1-1.66,0l-1.41-5.25h-.08c0,1-.05,1.87-.1,2.62l-.23,3.88a5.28,5.28,0,0,1-.75,0,3,3,0,0,1-.78-.08"/><path class="cls-1" d="M208.82,22.08a4.45,4.45,0,0,1-1.29-3.55,6.32,6.32,0,0,1,.24-1.82,3.73,3.73,0,0,1,.68-1.35,3.14,3.14,0,0,1,1.1-.84,3.87,3.87,0,0,1,2.94,0,3,3,0,0,1,1.09.84,3.91,3.91,0,0,1,.69,1.35,6.76,6.76,0,0,1,.23,1.82,6.63,6.63,0,0,1-.23,1.81,3.77,3.77,0,0,1-.69,1.34,2.81,2.81,0,0,1-1.09.84,3.59,3.59,0,0,1-1.46.29,3.36,3.36,0,0,1-2.21-.73m4-3.55c0-2-.59-3-1.78-3s-1.79,1-1.79,3,.6,3,1.79,3,1.78-1,1.78-3"/><path class="cls-1" d="M.41,9.26a4.4,4.4,0,0,0,2.36.82c1.1,0,1.8-.5,1.81-1.3S4,7.6,3.33,7.29L2,6.69c-1-.43-1.6-1-1.6-2A2.32,2.32,0,0,1,2.92,2.52a5.46,5.46,0,0,1,2.35.57,1.09,1.09,0,0,1-.37.76A4.53,4.53,0,0,0,3,3.29c-1,0-1.67.56-1.67,1.34s.51,1,1.14,1.25l1.33.57A2.43,2.43,0,0,1,5.51,8.59c0,1.32-.88,2.28-2.77,2.28A4.84,4.84,0,0,1,0,10,1.12,1.12,0,0,1,.41,9.26Z"/><path class="cls-1" d="M12.07,10.31a.52.52,0,0,1-.58.42H7.77c-.31,0-.51-.22-.51-.59V2.73l.07-.06h4.56a1.59,1.59,0,0,1,0,.36,1.69,1.69,0,0,1-.06.41h-3c-.19,0-.46,0-.72,0,0,.31,0,.43,0,.74V6.27h3.15a3.29,3.29,0,0,1,0,.38,2.87,2.87,0,0,1,0,.39H8.14V9.51c0,.17,0,.3,0,.45l.73,0h3.23A2.56,2.56,0,0,1,12.07,10.31Z"/><path class="cls-1" d="M16.46,3.28c-1.37,0-2.14,1.19-2.14,3.46,0,2.1.81,3.34,2.13,3.34a3.27,3.27,0,0,0,2.16-.93,1.1,1.1,0,0,1,.5.59,4,4,0,0,1-2.79,1.13c-2.13,0-3-2-3-4.13,0-2.92,1.44-4.22,3.1-4.22a2.5,2.5,0,0,1,2.75,2.22c0,.26-.09.53-.5.53a1.37,1.37,0,0,1-.4,0A1.78,1.78,0,0,0,16.46,3.28Z"/><path class="cls-1" d="M24.41,7.12a1.48,1.48,0,0,1,.79,1l.62,1.6a1.89,1.89,0,0,0,.51.84.83.83,0,0,1-.63.29c-.37,0-.5-.22-.65-.59l-.68-1.8c-.23-.61-.51-1.08-1.3-1.08H21.84v3.4a3.23,3.23,0,0,1-.46,0,2.94,2.94,0,0,1-.44,0v-8L21,2.67c.83,0,1.63,0,2.39,0A2.24,2.24,0,0,1,26,5,2.14,2.14,0,0,1,24.41,7.12Zm-2.57-.55c.5,0,1.1,0,1.55,0A1.46,1.46,0,0,0,25,5a1.45,1.45,0,0,0-1.63-1.59H21.84Z"/><path class="cls-1" d="M32.74,10.31a.52.52,0,0,1-.58.42H28.44a.52.52,0,0,1-.51-.59V2.73L28,2.67h4.55a1.59,1.59,0,0,1,0,.36,1.69,1.69,0,0,1-.06.41h-3c-.19,0-.46,0-.72,0,0,.31,0,.43,0,.74V6.27H32a3,3,0,0,1,0,.38A2.77,2.77,0,0,1,32,7H28.81V9.51c0,.17,0,.3,0,.45l.73,0h3.23A2.56,2.56,0,0,1,32.74,10.31Z"/><path class="cls-1" d="M35.81,3.43H33.66a2.66,2.66,0,0,1,0-.39,2.75,2.75,0,0,1,0-.38h5.2a.87.87,0,0,1,.07.37c0,.28-.18.4-.56.4H36.72v7.3a3.29,3.29,0,0,1-.45,0,3.33,3.33,0,0,1-.46,0Z"/><path class="cls-1" d="M40.23,8.63l-.68,2.11a2.41,2.41,0,0,1-.4,0,1.9,1.9,0,0,1-.44,0l0,0,2.7-8a2.82,2.82,0,0,1,.52,0,2.43,2.43,0,0,1,.49,0l2.71,8a1,1,0,0,1-.53.12c-.3,0-.43-.1-.55-.47l-.57-1.7H40.23Zm.26-.77h2.73l-.75-2.25c-.22-.69-.46-1.43-.6-2h-.06c-.12.46-.29,1.09-.4,1.41Z"/><path class="cls-1" d="M50.06,7.12a1.54,1.54,0,0,1,.79,1l.61,1.6a2,2,0,0,0,.51.84.83.83,0,0,1-.63.29c-.36,0-.49-.22-.65-.59L50,8.41c-.22-.61-.51-1.08-1.3-1.08H47.48v3.4a3.13,3.13,0,0,1-.46,0,2.72,2.72,0,0,1-.43,0v-8l.07-.06c.82,0,1.63,0,2.38,0A2.24,2.24,0,0,1,51.6,5,2.14,2.14,0,0,1,50.06,7.12Zm-2.58-.55c.5,0,1.1,0,1.55,0A1.45,1.45,0,0,0,50.66,5,1.45,1.45,0,0,0,49,3.38H47.48Z"/><path class="cls-1" d="M53.63,2.67a1.8,1.8,0,0,1,.43,0,2.13,2.13,0,0,1,.46,0v8.06a3.13,3.13,0,0,1-.46,0,2.63,2.63,0,0,1-.43,0Z"/><path class="cls-1" d="M57.59,8.63l-.68,2.11a2.41,2.41,0,0,1-.4,0,1.9,1.9,0,0,1-.44,0l0,0,2.7-8a2.89,2.89,0,0,1,.52,0,2.6,2.6,0,0,1,.5,0l2.7,8a1,1,0,0,1-.53.12c-.3,0-.43-.1-.54-.47l-.57-1.7H57.59Zm.26-.77h2.73l-.74-2.25c-.23-.69-.46-1.43-.61-2h0c-.12.46-.3,1.09-.41,1.41Z"/><path class="cls-1" d="M71.35,10.31a.52.52,0,0,1-.58.42H67.05c-.3,0-.5-.22-.5-.59V2.73l.07-.06h4.55a1.59,1.59,0,0,1,0,.36,1.31,1.31,0,0,1-.06.41h-3c-.19,0-.46,0-.72,0,0,.31,0,.43,0,.74V6.27h3.15a2,2,0,0,1,0,.38,1.84,1.84,0,0,1,0,.39H67.42V9.51c0,.17,0,.3,0,.45l.73,0h3.24A1.71,1.71,0,0,1,71.35,10.31Z"/><path class="cls-1" d="M72.9,9.26a4.4,4.4,0,0,0,2.36.82c1.1,0,1.8-.5,1.81-1.3s-.55-1.18-1.25-1.49l-1.38-.6c-1-.43-1.6-1-1.6-2A2.31,2.31,0,0,1,75.4,2.52a5.42,5.42,0,0,1,2.35.57,1.08,1.08,0,0,1-.36.76,4.53,4.53,0,0,0-2-.56c-1,0-1.67.56-1.67,1.34s.51,1,1.14,1.25l1.33.57A2.43,2.43,0,0,1,78,8.59c0,1.32-.88,2.28-2.77,2.28A4.84,4.84,0,0,1,72.49,10,1.12,1.12,0,0,1,72.9,9.26Z"/><path class="cls-1" d="M82.08,7.69H80.65v3a3,3,0,0,1-.46,0,2.85,2.85,0,0,1-.44,0v-8l.07-.06c.83,0,1.5,0,2.26,0a2.36,2.36,0,0,1,2.59,2.53A2.36,2.36,0,0,1,82.08,7.69ZM80.65,7H82.1a1.57,1.57,0,0,0,1.62-1.78c0-.82-.32-1.78-1.62-1.78H80.65Z"/><path class="cls-1" d="M91.13,10.31a.53.53,0,0,1-.58.42H86.83c-.31,0-.51-.22-.51-.59V2.73l.07-.06H91A2.36,2.36,0,0,1,91,3a1.31,1.31,0,0,1-.06.41h-3c-.19,0-.46,0-.72,0,0,.31,0,.43,0,.74V6.27h3.16a3,3,0,0,1,0,.38,2.77,2.77,0,0,1,0,.39H87.19V9.51c0,.17,0,.3,0,.45l.73,0h3.24A2.56,2.56,0,0,1,91.13,10.31Z"/><path class="cls-1" d="M95.52,3.28c-1.37,0-2.15,1.19-2.15,3.46,0,2.1.82,3.34,2.14,3.34a3.29,3.29,0,0,0,2.16-.93,1.13,1.13,0,0,1,.49.59,4,4,0,0,1-2.78,1.13c-2.14,0-3-2-3-4.13,0-2.92,1.44-4.22,3.1-4.22a2.5,2.5,0,0,1,2.75,2.22.46.46,0,0,1-.51.53,1.46,1.46,0,0,1-.4,0A1.77,1.77,0,0,0,95.52,3.28Z"/><path class="cls-1" d="M100.05,2.67a1.8,1.8,0,0,1,.43,0,2.13,2.13,0,0,1,.46,0v8.06a3.13,3.13,0,0,1-.46,0,2.63,2.63,0,0,1-.43,0Z"/><path class="cls-1" d="M104,8.63l-.68,2.11a2.41,2.41,0,0,1-.4,0,1.9,1.9,0,0,1-.44,0l0,0,2.7-8a2.89,2.89,0,0,1,.52,0,2.6,2.6,0,0,1,.5,0l2.7,8a1,1,0,0,1-.53.12c-.3,0-.43-.1-.54-.47l-.57-1.7H104Zm.26-.77H107l-.74-2.25c-.23-.69-.46-1.43-.6-2h-.06c-.12.46-.3,1.09-.4,1.41Z"/><path class="cls-1" d="M114.81,9.93a1.36,1.36,0,0,1,0,.38c0,.29-.26.42-.58.42h-3.3c-.29,0-.52-.2-.52-.6V2.7l.07-.07h.36c.4,0,.47.2.47.59V10l1,0Z"/><path class="cls-1" d="M123.4,10.17a3.35,3.35,0,0,1-2,.6c-.93,0-1.37,0-2.39,0l-.07-.07V2.73l.07-.06c1,0,1.46,0,2.39,0a3.42,3.42,0,0,1,2,.6,4.2,4.2,0,0,1,1.21,3.47A4.16,4.16,0,0,1,123.4,10.17Zm-2-6.79h-1.56V10h1.56c2,0,2.25-1.81,2.25-3.32S123.37,3.38,121.4,3.38Z"/><path class="cls-1" d="M127,8.63l-.69,2.11a2.33,2.33,0,0,1-.4,0,2,2,0,0,1-.44,0l0,0,2.7-8a2.89,2.89,0,0,1,.52,0,2.53,2.53,0,0,1,.5,0l2.7,8a1,1,0,0,1-.53.12c-.29,0-.42-.1-.54-.47l-.57-1.7H127Zm.26-.77H130l-.74-2.25c-.22-.69-.46-1.43-.6-2h-.06c-.12.46-.3,1.09-.4,1.41Z"/><path class="cls-1" d="M87.09,15.89c-1,0-1.41,1-1.41,2.76s.59,2.51,1.62,2.51a3.44,3.44,0,0,0,2-.81,2.13,2.13,0,0,1,.87,1.21A4.86,4.86,0,0,1,87,22.81c-2.5,0-3.26-2.15-3.26-4.18,0-3,1.57-4.25,3.45-4.25s3,1.08,3,2.46a.94.94,0,0,1-1.08,1.05,2.65,2.65,0,0,1-.72-.11C88.41,16.8,88.13,15.89,87.09,15.89Z"/><path class="cls-1" d="M97.63,19.66a3.19,3.19,0,0,1-6.38,0V14.57l.08-.08H92c.72,0,1.12.35,1.12,1.2v4c0,1.07.34,1.62,1.3,1.62s1.29-.55,1.29-1.62V14.57a5.2,5.2,0,0,1,.92-.07,5.74,5.74,0,0,1,1,.07Z"/><path class="cls-1" d="M104.34,21a5.7,5.7,0,0,1,0,.71,1.13,1.13,0,0,1-1.24.92H100.4a1,1,0,0,1-1.1-1.1v-7l.08-.08h.7c.72,0,1.11.35,1.11,1.2v5.4A10.91,10.91,0,0,1,102.3,21Z"/><path class="cls-1" d="M105.48,16.13h-2a3.75,3.75,0,0,1-.07-.78,4,4,0,0,1,.07-.79h5.84a2.73,2.73,0,0,1,.09.72c0,.63-.3.85-1,.85h-1.1c0,.33,0,.56,0,.88v5.63a6.75,6.75,0,0,1-1,.07,6.51,6.51,0,0,1-.94-.07Z"/><path class="cls-1" d="M116.59,19.66a3.2,3.2,0,0,1-6.39,0V14.57l.09-.08H111c.72,0,1.13.35,1.13,1.2v4c0,1.07.34,1.62,1.3,1.62s1.29-.55,1.29-1.62V14.57a5.13,5.13,0,0,1,.92-.07,5.74,5.74,0,0,1,1,.07Z"/><path class="cls-1" d="M122.61,19.22a1.64,1.64,0,0,1,.92,1.09l.35,1a1.78,1.78,0,0,0,.59.87,1.62,1.62,0,0,1-1.25.56c-.69,0-.91-.36-1.16-1.09l-.42-1.23a1,1,0,0,0-1-.73h-.48v2.95a6.35,6.35,0,0,1-1.88,0v-8l.08-.08c1,0,1.94-.05,2.84-.05,1.64,0,2.87.78,2.87,2.56A2.31,2.31,0,0,1,122.61,19.22Zm-2.46-1,.87,0c.9,0,1.11-.54,1.11-1.15s-.21-1.13-1.11-1.13h-.87Z"/><path class="cls-1" d="M127,20.93l-.51,1.72a3.23,3.23,0,0,1-.79.07,3.3,3.3,0,0,1-.92-.13l0-.1,2.59-7.92a10,10,0,0,1,1.1-.07,6.59,6.59,0,0,1,1.09.09l2.55,7.93a2.68,2.68,0,0,1-1.09.22c-.6,0-.9-.21-1.13-1l-.23-.78H127Zm.44-1.47h1.76l-.2-.73c-.19-.68-.45-1.65-.65-2.43h-.07c-.12.66-.39,1.6-.57,2.25Z"/></g></g></svg>