<svg xmlns="http://www.w3.org/2000/svg" viewBox="0 0 155.19 38.23"><defs><style>.cls-1{fill:#1f1f26;}.cls-2{fill:#fff;}.cls-3{fill:#d63b50;}</style></defs><g id="Camada_2" data-name="Camada 2"><g id="Camada_1-2" data-name="Camada 1"><path class="cls-1" d="M27.55,4.44V7.35a17.7,17.7,0,0,1,5.09,6,16.38,16.38,0,0,1,1.87,7.7,16.77,16.77,0,0,1-2.31,8.62,17.3,17.3,0,0,1-14.94,8.54A17.27,17.27,0,0,1,2.32,29.69,16.69,16.69,0,0,1,0,21.07,16.46,16.46,0,0,1,3.77,10.42a17.12,17.12,0,0,1,9.47-6c.39-.11.59,0,.59.45V11a.66.66,0,0,1-.42.62,11.32,11.32,0,0,0-4.87,3.76,9.32,9.32,0,0,0-1.92,5.74,9.65,9.65,0,0,0,3.19,7.26,10.64,10.64,0,0,0,14.89,0,9.65,9.65,0,0,0,3.19-7.26,7.42,7.42,0,0,0-1-3.43H21.65a.45.45,0,0,1-.52-.51V4.44a.46.46,0,0,1,.52-.52H27A.46.46,0,0,1,27.55,4.44Z"/><path class="cls-1" d="M72.55,10.3H59.34V31.85H72.55a.45.45,0,0,1,.51.51v5.35a.45.45,0,0,1-.51.52H39.27a.45.45,0,0,1-.51-.52V32.36a.45.45,0,0,1,.51-.51H52.48V10.3H39.27a.45.45,0,0,1-.51-.51V4.44a.45.45,0,0,1,.51-.52H72.55a.45.45,0,0,1,.51.52V9.79A.45.45,0,0,1,72.55,10.3Z"/><path class="cls-1" d="M79,36.65V30.29a.57.57,0,0,1,.41-.61L92.67,24V10.8H79.46a.45.45,0,0,1-.51-.51V4.46a.45.45,0,0,1,.51-.52h33.28a.45.45,0,0,1,.51.52V27A10.28,10.28,0,0,1,103,37.32a10,10,0,0,1-5.72-1.72,10.24,10.24,0,0,1-3.76-4.55L79.55,37C79.15,37.2,79,37.08,79,36.65Zm21.32-7.15a4.25,4.25,0,0,0,5.38,0A3,3,0,0,0,106.87,27V10.8H99.05V27A3,3,0,0,0,100.27,29.5Z"/><circle class="cls-1" cx="136.91" cy="19.88" r="18.28"/><circle class="cls-2" cx="136.91" cy="19.88" r="7.04"/><rect class="cls-2" x="144.94" y="24.33" width="3.83" height="4.57" transform="translate(43.13 -80.7) rotate(35.7)"/><polygon class="cls-2" points="145.32 30.12 144.31 29.41 149.26 22.41 149.26 0 150.49 0 150.49 22.8 145.32 30.12"/><path class="cls-3" d="M128.31,19.92l7-1.51,1.51-7,1.51,7,7,1.51-7,1.51-1.51,7-1.51-7Z"/></g></g></svg>