<svg xmlns="http://www.w3.org/2000/svg" viewBox="0 0 67.06 97.82"><defs><style>.cls-1{font-size:13.74px;font-family:BarlowSemiCondensed-Regular, BarlowSemiCondensed Regular;letter-spacing:0.05em;}.cls-2{fill:#fff;}</style></defs><g id="Camada_2" data-name="Camada 2"><g id="Camada_1-2" data-name="Camada 1"><text class="cls-1" transform="translate(0 11.5)">Realização</text><path d="M51.12,32.83V87.52H2.69V32.83H51.12m1-1H1.69V88.52H52.12V31.83Z"/><rect x="4.56" y="27.47" width="49.65" height="56.39"/><rect x="7.82" y="95.53" width="0.36" height="0.47"/><polygon points="11.53 93.86 11.53 97.73 14.09 97.73 14.09 97.46 11.82 97.46 11.82 93.86 11.53 93.86"/><rect x="17.31" y="93.86" width="0.29" height="3.87"/><polygon points="24.13 93.86 22.61 97.42 21.1 93.86 20.78 93.86 22.48 97.76 22.73 97.76 24.43 93.86 24.13 93.86"/><polygon points="27.57 93.86 27.57 97.73 30.35 97.73 30.35 97.46 27.86 97.46 27.86 95.91 30.07 95.91 30.07 95.65 27.86 95.65 27.86 94.13 30.32 94.13 30.32 93.86 27.57 93.86"/><rect x="48.96" y="95.53" width="0.36" height="0.47"/><circle cx="8.06" cy="95.74" r="0.47"/><circle cx="49.14" cy="95.74" r="0.47"/><path d="M33.46,93.77h1l1.07,1.71,1.07-1.71h1v4h-.89V95.17l-1.14,1.74h0l-1.13-1.72v2.63h-.88Z"/><path d="M38.49,93.77h.89v1.77L41,93.77H42.1l-1.65,1.72,1.73,2.33H41.11L39.85,96.1l-.47.48v1.24h-.89Z"/><path d="M43.6,94.59H42.37v-.82h3.36v.82H44.5v3.23h-.9Z"/><rect class="cls-2" x="13.54" y="41.47" width="0.01"/><path class="cls-2" d="M36.15,35.34a5.84,5.84,0,0,0-1.32-2,6.42,6.42,0,0,0-2.69-1.56v2.75a3.68,3.68,0,0,1,.69.56,3.56,3.56,0,0,1,.76,1.2,4,4,0,0,1,.26,1.47v0a3.86,3.86,0,0,1-1,2.65,3.3,3.3,0,0,1-1.14.81,3.38,3.38,0,0,1-1,.26h0a4.07,4.07,0,0,1-.5,0,3.5,3.5,0,0,1-1.46-.3,3.22,3.22,0,0,1-.55-.3v2.77a6.7,6.7,0,0,0,2,.28l.54,0h0a6.47,6.47,0,0,0,2-.47,6.33,6.33,0,0,0,2-1.35,6,6,0,0,0,1.33-2,5.9,5.9,0,0,0,.49-2.41v0A6.11,6.11,0,0,0,36.15,35.34Z"/><polygon class="cls-2" points="22.83 70.34 22.83 74.24 22.83 77.15 25.48 77.15 25.48 74.24 25.48 70.34 25.48 70.13 22.83 70.13 22.83 70.34"/><rect class="cls-2" x="31.16" y="74.72" width="6" height="2.39"/><polygon class="cls-2" points="46.32 57.76 46.32 57.76 45.33 55.43 42.66 55.43 42.65 55.43 42.65 55.43 41.06 55.43 39.46 55.43 39.46 55.43 39.45 55.43 41.06 51.52 41.06 51.52 43.67 51.52 42.31 48.33 39.87 48.33 38.51 51.52 38.51 51.52 34.7 60.47 37.41 60.47 38.51 57.77 38.51 57.77 38.51 57.77 38.58 57.77 38.58 57.76 43.6 57.76 43.6 57.76 43.6 57.76 44.08 58.93 44.71 60.47 47.48 60.47 46.32 57.76"/><polygon class="cls-2" points="31.15 68.19 31.15 65.06 28.5 65.06 28.5 68.75 28.5 68.75 28.5 73.33 28.5 73.33 28.5 74.73 31.15 74.72 31.15 73.33 31.15 73.33 31.15 68.19 31.15 68.19"/><polygon class="cls-2" points="25.48 67.3 25.48 65.1 22.83 65.1 22.83 67.3 22.83 68.24 25.48 68.24 25.48 67.3"/><path class="cls-2" d="M30.76,56.09a4.21,4.21,0,0,0,1.87-1.35,3.77,3.77,0,0,0,.71-2.39v0c0-.19,0-.36,0-.53s0-.22,0-.33h0a3.47,3.47,0,0,0-1.12-2.07,4.93,4.93,0,0,0-3.35-1h-.95v2.39h.72a2.49,2.49,0,0,1,1.54.43,1.58,1.58,0,0,1,.28.3h0a1.68,1.68,0,0,1,.16.33h0a1.9,1.9,0,0,1,.11.66v0a1.59,1.59,0,0,1-.53,1.24,2.19,2.19,0,0,1-1.5.46H25.94V51.46H23.29v5.08h0v3.85h2.65V56.54H28l2.59,3.86h3.1Z"/><path class="cls-2" d="M27.66,32.05a6.33,6.33,0,0,0-2,1.35,6,6,0,0,0-1.33,2,6.16,6.16,0,0,0-.45,1.71h0c0,.23,0,.47,0,.71v0a6.32,6.32,0,0,0,.24,1.75H27c-.05-.11-.1-.21-.14-.32a4,4,0,0,1-.27-1.46v0a4.65,4.65,0,0,1,.05-.66h0a4.1,4.1,0,0,1,.22-.78,3.51,3.51,0,0,1,.74-1.2,3,3,0,0,1,.57-.49V31.87Z"/><path class="cls-2" d="M17.81,65.4a7,7,0,0,0-1.49-.33v0h0v0a7.3,7.3,0,0,0-.94-.06,5.25,5.25,0,0,0-1.07.1l0,2.47a2,2,0,0,1,1.05-.23,4.12,4.12,0,0,1,1,.13v0h0v0a4.23,4.23,0,0,1,.57.19,8.39,8.39,0,0,1,1.59.87l1.37-2A7.17,7.17,0,0,0,17.81,65.4Z"/><path class="cls-2" d="M17.07,41.21a4.23,4.23,0,0,1-1.31.25H13.55v2.39h2.21a7,7,0,0,0,2.43-.46,6.27,6.27,0,0,0,2-1.28,5.58,5.58,0,0,0,1-1.33h-3.4A3.36,3.36,0,0,1,17.07,41.21Z"/><path class="cls-2" d="M21.53,35.43a5.6,5.6,0,0,0-1.32-1.9,6.25,6.25,0,0,0-2-1.27,7.2,7.2,0,0,0-2.6-.45h-4.7V34.2h0v3.6h2.65V34.2h2.05a3.94,3.94,0,0,1,1.48.27,3.47,3.47,0,0,1,1.15.75A3.26,3.26,0,0,1,19,36.36a4.14,4.14,0,0,1,.26,1.48v0A4,4,0,0,1,19,39.32a3.21,3.21,0,0,1-.74,1.15,3.79,3.79,0,0,1-.38.32h3.4a6.27,6.27,0,0,0,.29-.58A6,6,0,0,0,22,37.84v0A6,6,0,0,0,21.53,35.43Z"/><path class="cls-2" d="M20.23,73.63A3.34,3.34,0,0,0,20,72.27a2.63,2.63,0,0,0-.74-1A4.56,4.56,0,0,0,18,70.56,12,12,0,0,0,16.4,70l-1.17-.33-.12,0-.33-.12h0a3.59,3.59,0,0,1-.47-.21,1,1,0,0,1-.4-.39.91.91,0,0,1-.1-.29,1.5,1.5,0,0,1,0-.22v0a.43.43,0,0,1,0-.11.36.36,0,0,1,0-.1H11.21s0,.07,0,.1,0,.23,0,.35h0v0a3.49,3.49,0,0,0,.28,1.5,2.83,2.83,0,0,0,.8,1,4.61,4.61,0,0,0,1.27.67c.38.14.8.27,1.25.4h0l.4.11h.05c.48.12.88.24,1.19.35a4,4,0,0,1,.74.35.84.84,0,0,1,.36.37.93.93,0,0,1,.1.45v0s0,.06,0,.09a.92.92,0,0,1-.45.74,1.93,1.93,0,0,1-.8.27h0a3.64,3.64,0,0,1-.48,0,4.55,4.55,0,0,1-1.9-.39,8,8,0,0,1-1.7-1.07l-1.57,1.88a7.22,7.22,0,0,0,2.41,1.45,7.93,7.93,0,0,0,2.71.47,4.61,4.61,0,0,0,.53,0v0h0v0a5.34,5.34,0,0,0,1.25-.23A3.91,3.91,0,0,0,19,76.43a3.19,3.19,0,0,0,.91-1.17A3.7,3.7,0,0,0,20.22,74h0c0-.11,0-.23,0-.35Z"/><path class="cls-2" d="M21,56.1a2.59,2.59,0,0,0-.44-.82,3,3,0,0,0-.71-.61,5.75,5.75,0,0,0-.93-.46,3.43,3.43,0,0,0,1.1-1,2.6,2.6,0,0,0,.47-1.62v0s0-.07,0-.11h0c0-.09,0-.18,0-.26h0a2.69,2.69,0,0,0-1-1.9,4.08,4.08,0,0,0-2.25-.81h0c-.21,0-.42,0-.64,0H10.93V51h0v.43h0v1.87h2.58v-2h0v-.24h0v-.34h2.62a2.54,2.54,0,0,1,1,.18h0a1.38,1.38,0,0,1,.24.14l.12.1a1.15,1.15,0,0,1,.19.26h0a1.13,1.13,0,0,1,.14.56v0a1,1,0,0,1-.52,1,2.76,2.76,0,0,1-1.39.3H13.52v2.2h3.06a2.43,2.43,0,0,1,1.49.36,1.13,1.13,0,0,1,.47,1v0a1.11,1.11,0,0,1-.5,1,2.57,2.57,0,0,1-1.38.31H13.52v2.33h3.13a7.59,7.59,0,0,0,1.85-.21,4.24,4.24,0,0,0,1.43-.62,2.81,2.81,0,0,0,.91-1,3.16,3.16,0,0,0,.32-1.45v0A3.49,3.49,0,0,0,21,56.1Z"/></g></g></svg>