<svg xmlns="http://www.w3.org/2000/svg" viewBox="0 0 110.42 68.82"><defs><style>.cls-1{font-size:13.74px;font-family:BarlowSemiCondensed-Regular, BarlowSemiCondensed Regular;letter-spacing:0.05em;}.cls-2{fill:#a11e22;}.cls-3{fill:#fefdfd;}.cls-4{fill:#c57679;}</style></defs><g id="Camada_2" data-name="Camada 2"><g id="Camada_1-2" data-name="Camada 1"><text class="cls-1" transform="translate(0 11.5)">Promoção</text><path class="cls-2" d="M1.56,68.7v-.19c.14-.18.08-.4.08-.6V51.66c0-.14,0-.28,0-.43s.1-.31.32-.3H109.59l.68,0q0,8.67,0,17.34c0,.28-.06.42-.37.38-.12,0-.25,0-.38,0H2.18C2,68.67,1.77,68.69,1.56,68.7Zm78.08-1.3q14.46,0,28.93,0c.38,0,.52-.05.52-.48q0-7.16,0-14.33c0-.39-.12-.46-.48-.46H50.69c-.45,0-.52.13-.52.53q0,7.11,0,14.24c0,.44.13.51.54.51,5.44,0,10.89,0,16.34,0ZM5.32,59.68c0,1.43,0,2.86,0,4.3,0,.28.06.39.37.38.73,0,1.47,0,2.21,0,.34,0,.39-.13.38-.42,0-.87,0-1.75,0-2.62,0-.17-.16-.48.19-.49s.66-.17.83.31c.35,1,.76,1.92,1.13,2.88a.43.43,0,0,0,.48.34c.83,0,1.67,0,2.5,0,.35,0,.42-.07.27-.39-.47-1-.91-2.07-1.39-3.09-.16-.33-.16-.49.22-.67a2.46,2.46,0,0,0,1.37-1.69,2.78,2.78,0,0,0-2.46-3.39A57.2,57.2,0,0,0,5.56,55c-.33,0-.23.23-.23.4C5.32,56.84,5.32,58.26,5.32,59.68Zm23.05,0c0,1.44,0,2.87,0,4.3,0,.28.05.4.37.39,1.24,0,2.49,0,3.74,0A4.29,4.29,0,0,0,37,60.2a4.39,4.39,0,0,0-4.24-5.15C31.39,55,30,55,28.64,55c-.32,0-.27.19-.27.38Zm-11.32,0V64c0,.2-.05.41.29.4,2.24,0,4.49,0,6.73,0,.23,0,.3-.07.3-.3,0-.54,0-1.08,0-1.62,0-.34-.12-.39-.41-.39-.95,0-1.89,0-2.84,0s-1.07,0-1.08-1.06c0-.35.11-.43.44-.43,1.17,0,2.34,0,3.51,0,.29,0,.4-.08.38-.38a13.64,13.64,0,0,1,0-1.43c0-.33-.11-.39-.41-.39-1,0-2,0-3,0s-.92,0-.93-.91c0-.37.07-.49.47-.48,1.13,0,2.27,0,3.41,0,.31,0,.47,0,.44-.4a9.26,9.26,0,0,1,0-1.29c0-.33-.1-.39-.41-.39H17.47c-.33,0-.43.08-.43.42C17.06,56.84,17.05,58.25,17.05,59.67Zm23,0c0,1.45,0,2.9,0,4.35,0,.26,0,.4.35.4q3.32,0,6.63,0c.29,0,.35-.1.34-.36,0-.53,0-1,0-1.58,0-.29-.07-.38-.37-.38-1,0-1.95,0-2.93,0s-1,0-1-1c0-.38.13-.44.47-.44,1.15,0,2.3,0,3.46,0,.29,0,.44,0,.41-.38a13.64,13.64,0,0,1,0-1.43c0-.3-.07-.38-.37-.38-1,0-2,0-3,0s-1,0-1-1c0-.32.1-.4.41-.39,1.18,0,2.37,0,3.55,0,.29,0,.4-.07.38-.37s0-.89,0-1.33S47.28,55,47,55H40.44c-.34,0-.42.11-.41.43C40,56.85,40,58.26,40,59.68Z"/><path class="cls-3" d="M1.56,68.7c.21,0,.41,0,.62,0H109.53c.13,0,.26,0,.38,0,.31,0,.37-.1.37-.38q0-8.67,0-17.34l0-.12c.15,0,.09.09.09.14q0,8.81,0,17.59c0,.2,0,.28-.24.24H2C1.85,68.79,1.67,68.9,1.56,68.7Z"/><path class="cls-4" d="M110.31,50.83l0,.12-.68,0H2c-.22,0-.33.08-.32.3s0,.29,0,.43V67.91c0,.2.06.42-.08.6q0-8.63,0-17.25c0-.36.08-.44.44-.44Z"/><path class="cls-3" d="M79.64,67.4H67.05c-5.45,0-10.9,0-16.34,0-.41,0-.54-.07-.54-.51q0-7.13,0-14.24c0-.4.07-.54.52-.53h57.92c.36,0,.48.07.48.46q0,7.17,0,14.33c0,.43-.14.49-.52.48Q94.11,67.38,79.64,67.4ZM62,59.18a1.1,1.1,0,0,1,.09.61l0,4.92c0,.2-.07.42.28.42.75,0,1.5,0,2.25,0,.3,0,.3-.14.3-.35,0-3.37,0-6.75,0-10.12,0-.29-.08-.39-.38-.38-.9,0-1.79,0-2.69,0a.54.54,0,0,0-.61.44Q60.42,57,59.53,59.2c-.06.15-.05.4-.26.4s-.21-.25-.27-.41c-.57-1.51-1.14-3-1.7-4.54-.09-.24-.19-.36-.48-.35-1,0-2,0-2.93,0-.29,0-.38.07-.38.37,0,3.38,0,6.75,0,10.13,0,.32.12.36.39.35.72,0,1.44,0,2.16,0,.33,0,.39-.11.39-.41,0-1.7,0-3.4,0-5.11a.72.72,0,0,1,.08-.5l2.73,6C60.14,63.1,61.05,61.18,62,59.18Zm18.55.64-.27-.51Q79.08,57,77.85,54.66c-.09-.17-.15-.37-.43-.36q-1.44,0-2.88,0c-.24,0-.3.08-.3.31V64.83c0,.25.07.33.32.32.69,0,1.38,0,2.07,0,.36,0,.46-.09.45-.45q0-2.58,0-5.16c0-.15-.07-.32.09-.48.09.14.18.27.25.4l3,5.36c.1.17.18.34.45.33.8,0,1.6,0,2.4,0,.3,0,.34-.12.34-.37,0-3.38,0-6.75,0-10.13,0-.31-.12-.37-.4-.36-.68,0-1.37,0-2.06,0-.41,0-.55.08-.54.52,0,1.5,0,3,0,4.49A.7.7,0,0,1,80.56,59.82Zm18,1.94c-.39,0-.77,0-1.16,0s-.42.07-.36.4a3.45,3.45,0,0,0,2,2.66,5.86,5.86,0,0,0,5.15,0A3.18,3.18,0,0,0,106,61.68a2.89,2.89,0,0,0-1.82-2.74,9,9,0,0,0-1.59-.54,10.13,10.13,0,0,1-1.87-.58.6.6,0,0,1,0-1.1c.51-.29,1.64-.25,1.9.51.06.16.14.27.34.26.85,0,1.7,0,2.55,0,.18,0,.26-.05.22-.25a3.31,3.31,0,0,0-1.84-2.63,5.82,5.82,0,0,0-4.54-.11,3.1,3.1,0,0,0-2,3,2.82,2.82,0,0,0,1.92,2.93,12,12,0,0,0,1.63.55,9.94,9.94,0,0,1,1.61.48.71.71,0,0,1,.2,1.18c-.52.43-2,.27-2.26-.33s-.56-.54-1-.51C99.11,61.77,98.85,61.76,98.6,61.76Zm-3.26,3.37a.41.41,0,0,0,0-.12q-1.52-5.19-3-10.39c-.08-.24-.21-.27-.42-.27-.88,0-1.76,0-2.64,0a.39.39,0,0,0-.46.34c-.21.83-.45,1.65-.68,2.48-.71,2.52-1.41,5-2.13,7.56-.09.31,0,.43.31.41.59,0,1.18,0,1.77,0a.38.38,0,0,0,.45-.35c.12-.48.27-1,.38-1.43a.37.37,0,0,1,.43-.33h2c.25,0,.37,0,.43.31.1.5.25,1,.39,1.48,0,.16.07.32.32.32C93.46,65.12,94.41,65.13,95.34,65.13Zm-24.2-5.41c0-1.67,0-3.34,0-5,0-.3-.08-.41-.4-.4-.78,0-1.57,0-2.35,0-.28,0-.39.05-.39.36,0,3.37,0,6.75,0,10.12,0,.32.12.36.39.36.77,0,1.54,0,2.31,0,.38,0,.44-.12.44-.46C71.13,63,71.14,61.37,71.14,59.72Z"/><path class="cls-3" d="M5.32,59.68c0-1.42,0-2.84,0-4.25,0-.17-.1-.41.23-.4a57.2,57.2,0,0,1,5.86.1,2.78,2.78,0,0,1,2.46,3.39,2.46,2.46,0,0,1-1.37,1.69c-.38.18-.38.34-.22.67.48,1,.92,2.06,1.39,3.09.15.32.08.4-.27.39-.83,0-1.67,0-2.5,0a.43.43,0,0,1-.48-.34c-.37-1-.78-1.91-1.13-2.88-.17-.48-.54-.31-.83-.31s-.18.32-.19.49c0,.87,0,1.75,0,2.62,0,.29,0,.44-.38.42-.74,0-1.48,0-2.21,0-.31,0-.38-.1-.37-.38C5.33,62.54,5.32,61.11,5.32,59.68Zm3-1.69c0,.22,0,.45,0,.67s0,.25.21.24a8.67,8.67,0,0,0,1.53,0,.88.88,0,0,0,.76-.85.89.89,0,0,0-.72-.89,3.55,3.55,0,0,0-.86,0C8.28,57.06,8.28,57.07,8.28,58Z"/><path class="cls-3" d="M28.37,59.68V55.39c0-.19-.05-.38.27-.38,1.37,0,2.75,0,4.13,0A4.39,4.39,0,0,1,37,60.2a4.29,4.29,0,0,1-4.54,4.16c-1.25,0-2.5,0-3.74,0-.32,0-.37-.11-.37-.39C28.37,62.55,28.37,61.12,28.37,59.68Zm3.11,0c0,.76,0,1.53,0,2.29,0,.23.06.3.3.27A2.13,2.13,0,0,0,33.66,61a3.2,3.2,0,0,0-.16-3.06A1.65,1.65,0,0,0,31.91,57c-.32,0-.45.09-.44.44C31.5,58.2,31.48,58.93,31.48,59.66Z"/><path class="cls-3" d="M17.05,59.67c0-1.42,0-2.83,0-4.25,0-.34.1-.43.43-.42H24c.31,0,.43.06.41.39a9.26,9.26,0,0,0,0,1.29c0,.36-.13.41-.44.4-1.14,0-2.28,0-3.41,0-.4,0-.48.11-.47.48,0,.91,0,.91.93.91s2,0,3,0c.3,0,.43.06.41.39a13.64,13.64,0,0,0,0,1.43c0,.3-.09.38-.38.38-1.17,0-2.34,0-3.51,0-.33,0-.44.08-.44.43,0,1.06,0,1.06,1.08,1.06s1.89,0,2.84,0c.29,0,.43,0,.41.39,0,.54,0,1.08,0,1.62,0,.23-.07.3-.3.3-2.24,0-4.49,0-6.73,0-.34,0-.29-.2-.29-.4Z"/><path class="cls-3" d="M40,59.68c0-1.42,0-2.83,0-4.25,0-.32.07-.44.41-.43H47c.3,0,.39.09.37.38s0,.89,0,1.33-.09.38-.38.37c-1.18,0-2.37,0-3.55,0-.31,0-.41.07-.41.39,0,1,0,1,1,1s2,0,3,0c.3,0,.39.08.37.38a13.64,13.64,0,0,0,0,1.43c0,.34-.12.39-.41.38-1.16,0-2.31,0-3.46,0-.34,0-.48.06-.47.44,0,1,0,1,1,1s2,0,2.93,0c.3,0,.38.09.37.38,0,.53,0,1,0,1.58,0,.26-.05.36-.34.36q-3.32,0-6.63,0c-.33,0-.35-.14-.35-.4C40,62.58,40,61.13,40,59.68Z"/><path class="cls-2" d="M62,59.18c-1,2-1.87,3.92-2.75,6l-2.73-6a.72.72,0,0,0-.08.5c0,1.71,0,3.41,0,5.11,0,.3-.06.42-.39.41-.72,0-1.44,0-2.16,0-.27,0-.39,0-.39-.35,0-3.38,0-6.75,0-10.13,0-.3.09-.38.38-.37,1,0,2,0,2.93,0,.29,0,.39.11.48.35.56,1.51,1.13,3,1.7,4.54.06.16.07.4.27.41s.2-.25.26-.4q.88-2.23,1.76-4.47a.54.54,0,0,1,.61-.44c.9,0,1.79,0,2.69,0,.3,0,.38.09.38.38,0,3.37,0,6.75,0,10.12,0,.21,0,.36-.3.35-.75,0-1.5,0-2.25,0-.35,0-.28-.22-.28-.42l0-4.92A1.1,1.1,0,0,0,62,59.18Z"/><path class="cls-2" d="M80.56,59.82a.7.7,0,0,0,.1-.52c0-1.5,0-3,0-4.49,0-.44.13-.53.54-.52.69,0,1.38,0,2.06,0,.28,0,.4.05.4.36,0,3.38,0,6.75,0,10.13,0,.25,0,.37-.34.37-.8,0-1.6,0-2.4,0-.27,0-.35-.16-.45-.33l-3-5.36c-.07-.13-.16-.26-.25-.4-.16.16-.09.33-.09.48q0,2.58,0,5.16c0,.36-.09.46-.45.45-.69,0-1.38,0-2.07,0-.25,0-.32-.07-.32-.32V54.61c0-.23.06-.31.3-.31q1.44,0,2.88,0c.28,0,.34.19.43.36q1.23,2.33,2.44,4.65Z"/><path class="cls-2" d="M98.6,61.76c.25,0,.51,0,.77,0,.44,0,.77,0,1,.51s1.74.76,2.26.33a.71.71,0,0,0-.2-1.18,9.94,9.94,0,0,0-1.61-.48,12,12,0,0,1-1.63-.55,2.82,2.82,0,0,1-1.92-2.93,3.1,3.1,0,0,1,2-3,5.82,5.82,0,0,1,4.54.11,3.31,3.31,0,0,1,1.84,2.63c0,.2,0,.25-.22.25-.85,0-1.7,0-2.55,0-.2,0-.28-.1-.34-.26-.26-.76-1.39-.8-1.9-.51a.6.6,0,0,0,0,1.1,10.13,10.13,0,0,0,1.87.58,9,9,0,0,1,1.59.54A2.89,2.89,0,0,1,106,61.68a3.18,3.18,0,0,1-1.79,3.09,5.86,5.86,0,0,1-5.15,0,3.45,3.45,0,0,1-2-2.66c-.06-.33,0-.42.36-.4S98.21,61.76,98.6,61.76Z"/><path class="cls-2" d="M95.34,65.13c-.93,0-1.88,0-2.82,0-.25,0-.28-.16-.32-.32-.14-.49-.29-1-.39-1.48-.06-.26-.18-.32-.43-.31h-2a.37.37,0,0,0-.43.33c-.11.48-.26,1-.38,1.43a.38.38,0,0,1-.45.35c-.59,0-1.18,0-1.77,0-.36,0-.4-.1-.31-.41.72-2.52,1.42-5,2.13-7.56.23-.83.47-1.65.68-2.48a.39.39,0,0,1,.46-.34c.88,0,1.76,0,2.64,0,.21,0,.34,0,.42.27q1.48,5.21,3,10.39A.41.41,0,0,1,95.34,65.13Zm-5-7h-.13l-.36,1.5c-.28,1.16-.28,1.15.94,1.06.22,0,.27-.07.21-.29C90.82,59.63,90.61,58.87,90.39,58.11Z"/><path class="cls-2" d="M71.14,59.72c0,1.65,0,3.31,0,5,0,.34-.06.48-.44.46-.77,0-1.54,0-2.31,0-.27,0-.39,0-.39-.36,0-3.37,0-6.75,0-10.12,0-.31.11-.37.39-.36.78,0,1.57,0,2.35,0,.32,0,.4.1.4.4C71.14,56.38,71.14,58.05,71.14,59.72Z"/><path class="cls-2" d="M8.28,58c0-.92,0-.93.91-.92a3.55,3.55,0,0,1,.86,0,.89.89,0,0,1,.72.89.88.88,0,0,1-.76.85,8.67,8.67,0,0,1-1.53,0c-.17,0-.21-.09-.21-.24S8.28,58.21,8.28,58Z"/><path class="cls-2" d="M31.48,59.66c0-.73,0-1.46,0-2.19,0-.35.12-.44.44-.44a1.65,1.65,0,0,1,1.59.86A3.2,3.2,0,0,1,33.66,61a2.13,2.13,0,0,1-1.88,1.27c-.24,0-.31,0-.3-.27C31.49,61.19,31.48,60.42,31.48,59.66Z"/><path class="cls-3" d="M90.39,58.11c.22.76.43,1.52.66,2.27.06.22,0,.27-.21.29-1.22.09-1.22.1-.94-1.06l.36-1.5Z"/></g></g></svg>