<svg xmlns="http://www.w3.org/2000/svg" viewBox="0 0 60.79 97.82"><defs><style>.cls-1{font-size:13.74px;font-family:BarlowSemiCondensed-Regular, BarlowSemiCondensed Regular;letter-spacing:0.05em;}.cls-2{fill:#ec5034;}</style></defs><g id="Camada_2" data-name="Camada 2"><g id="Camada_1-2" data-name="Camada 1"><text class="cls-1" transform="translate(0.12 11.5)">Colab</text><rect class="cls-2" x="45.47" y="45.92" width="9.05" height="3.29"/><polygon class="cls-2" points="10.35 43.24 6.58 43.24 0 28.39 4.68 28.39 8.49 38 12.34 28.39 16.93 28.39 10.35 43.24"/><path class="cls-2" d="M26.37,30.72c-1.3,0-2.47.78-2.86,2.86h5.24A3.58,3.58,0,0,0,28.8,33a2.19,2.19,0,0,0-2.43-2.25m.3,13a7.7,7.7,0,0,1-8.09-8,7.64,7.64,0,0,1,7.75-7.88c3.85,0,6.88,2.56,6.88,6.06A10.17,10.17,0,0,1,33,36H23.34c0,2.16,1,4.33,4.68,4.33a7.29,7.29,0,0,0,4.33-1.52l1.21,2.38a10.26,10.26,0,0,1-6.89,2.51"/><path class="cls-2" d="M42.69,35.53v7.62H37.84V28.69l4.42-.48L42.52,31a6.09,6.09,0,0,1,5.41-3.21V32.5c-2.64-.78-5.24.52-5.24,3"/><path class="cls-2" d="M7.08,63.36v4.53A4.34,4.34,0,0,0,10.74,70c2.06,0,3.57-1.55,3.57-4.4s-1.51-4.35-3.57-4.35a4.34,4.34,0,0,0-3.66,2.11m5,10.17a6.45,6.45,0,0,1-5.29-2.41l-1,2H2.27v-26l4.81-.51V59.74a6.85,6.85,0,0,1,5-2c4,0,7,3.36,7,7.88s-3,7.93-7,7.93"/><path class="cls-2" d="M31.09,61.21c-2.3,0-3.85,1.73-3.85,4.42s1.55,4.46,3.85,4.46,3.85-1.74,3.85-4.46-1.51-4.42-3.85-4.42m0,12.47c-4.85,0-8.7-3.46-8.7-8.05s3.85-8,8.7-8,8.7,3.42,8.7,8-3.89,8.05-8.7,8.05"/><path class="cls-2" d="M56.19,83.87c-.59,2.52-1.65,2.9-2.22,2.9-.15,0-.36-.28-.49-.66a3.48,3.48,0,0,1,.31-3.18,1.14,1.14,0,0,1,.91-.43,1.59,1.59,0,0,1,1.51,1c0,.08,0,.29,0,.42M39.48,82.71a1.19,1.19,0,0,1,.92-.36.76.76,0,0,1,.61.33,1.34,1.34,0,0,1,0,1.07,4.13,4.13,0,0,1-1.53,2,2.59,2.59,0,0,1,0-3M35.72,77.8c.44-.87,1.43-1.47,1.78-1.35a.35.35,0,0,1,.27.36c-.08,1.36-1.41,4.82-2.41,7a6.45,6.45,0,0,1,.36-6M11.85,82.71a1.2,1.2,0,0,1,.93-.36v0c.28,0,.45.1.51.29A1.13,1.13,0,0,1,13,83.76a2.61,2.61,0,0,1-1.45.84,2.1,2.1,0,0,1,.3-1.89M7,84.5C7,84.62,6.61,87,5.23,87c-.13,0-.35-.21-.56-.8a3.85,3.85,0,0,1,.4-3.31,1.38,1.38,0,0,1,1.1-.5,2.29,2.29,0,0,1,1.07.25A9.79,9.79,0,0,0,7,84.5M6,96.83a1,1,0,0,1-.66.26,2.5,2.5,0,0,1-1.92-1.64c-1-2.67,1.06-4.27,3.68-5.88.06,2.33.09,6.22-1.1,7.26M60.39,87a2.78,2.78,0,0,1-2-.62c-.93-.86-.8-2.39-.72-3.31a2.15,2.15,0,0,0,0-.7,1,1,0,0,0-.85-.63.45.45,0,0,0-.36.16,2.29,2.29,0,0,0-.15.48,2.86,2.86,0,0,0-3.88.23A3.39,3.39,0,0,0,52,85.88a2.57,2.57,0,0,1-1.86.89,13.86,13.86,0,0,1-2.26-.29,14.72,14.72,0,0,0-1.5-.22c.28-.34.59-.74.88-1.14l.54.32a.23.23,0,0,0,.14,0,.56.56,0,0,0,.41-.18.24.24,0,0,0,.06-.25,2.12,2.12,0,0,0-.71-.5c.42-.59,1.26-1.83,1.06-2.37a.66.66,0,0,0-.54-.42.43.43,0,0,0-.32.13h0l-.53,0c-.52,0-1.32-.09-2.33-.09a2.25,2.25,0,0,0-1.59.45.72.72,0,0,0-.1.74c.06.16.37.28.55.28a.31.31,0,0,0,.25-.11.22.22,0,0,0,0-.26c0-.11,0-.15,0-.17s.29-.19,1.11-.19c.46,0,1,0,1.43.07l.58,0c-.31.4-.7.9-1.09,1.43a3,3,0,0,0-.42,0A4.2,4.2,0,0,0,43,85.48a3.58,3.58,0,0,1-2.25,1.29c-.54,0-.71-.23-1-.64a4,4,0,0,0,1.77-1.84,2.15,2.15,0,0,0,.15-1.78,1.53,1.53,0,0,0-1.47-.9h0a2.15,2.15,0,0,0-1.82.75A2.79,2.79,0,0,0,38,84.74,3.82,3.82,0,0,0,38.52,86l.11.16c-1.57.81-2.39-.5-2.71-1.22.07-.13.23-.39.35-.65.82-1.72,2.59-5.86,2.26-7.64a1,1,0,0,0-.65-.84c-.56-.19-1.71.35-2.57,1.56a6.37,6.37,0,0,0-.54,6.84,4.08,4.08,0,0,1,.18.43c-1.42,2.53-2.27,2.15-2.27,2.15-.83,0-1-1.29-1.08-2.53a8.33,8.33,0,0,0-.3-1.78,1.17,1.17,0,0,0-.9-.68.45.45,0,0,0-.35.16l0,0v0c-.29,1.32-1.41,4.76-3.06,4.76a.39.39,0,0,1-.29-.13c-.79-.77-.56-4.21-.38-5.68L27,81c1,0,1.58-.13,1.8-.4a.62.62,0,0,0,.12-.55.5.5,0,0,0-.48-.25.4.4,0,0,0-.31.11.21.21,0,0,0,0,.2s-.27.15-1.24.15h-.48a6.76,6.76,0,0,0,0-1.52.93.93,0,0,0-.9-.61.37.37,0,0,0-.28.13.27.27,0,0,0-.05.26A6.1,6.1,0,0,1,25,80.13c-1-.11-5.07-.6-7.21-.6a2.37,2.37,0,0,0-1.78.53.81.81,0,0,0-.13.82l0,.13h.16a.76.76,0,0,0,.55-.17.19.19,0,0,0,0-.21.1.1,0,0,1,0,0,2.6,2.6,0,0,1,1.55-.32c1.59,0,5.68.48,6.63.59l-.35,2.55c-.26,1.31-1,3.37-1.91,3.37-.7,0-.74-1.17-.79-2.3-.06-1.33-.11-2.71-1.26-2.71A3.28,3.28,0,0,0,18,83.56a3.49,3.49,0,0,0-.07-1.34.85.85,0,0,0-.78-.45.66.66,0,0,0-.25,0,.31.31,0,0,0-.19.24c-.07.49-.8,4.72-3.55,4.72-.52,0-1.07-.71-1.38-1.44a3.91,3.91,0,0,0,2-1.1,1.64,1.64,0,0,0,.31-1.72,1.52,1.52,0,0,0-1.48-.9,2.66,2.66,0,0,0-2.13.8,2.6,2.6,0,0,0-.46,2.15l-.18-.08a.37.37,0,0,0-.15,0,.41.41,0,0,0-.37.25.33.33,0,0,0,.16.4,2.8,2.8,0,0,0,.78.25c.2.92-1.21,2-1.85,2.39-.11-1.85-.14-4.61.23-5.07.14-.17,0-.47-.07-.53A.68.68,0,0,0,8,81.78a.6.6,0,0,0-.43.2,3.41,3.41,0,0,0-1.55-.37,3,3,0,0,0-2.33,1,3.47,3.47,0,0,0-.54,3.32A2.4,2.4,0,0,0,5.4,87.68,2,2,0,0,0,7,86.88l0,1.76a7.14,7.14,0,0,1-.62.38c-1.54.89-5.15,3-3.87,6.54a3.42,3.42,0,0,0,2.89,2.26A2.3,2.3,0,0,0,7,97.24c1.74-1.56,1.56-5.92,1.48-7.78,0-.32,0-.62,0-.75A6.79,6.79,0,0,0,11,86.41a3.16,3.16,0,0,0,2.31,1.1,3.57,3.57,0,0,0,3-1.7,4.09,4.09,0,0,0,.16,1.41.55.55,0,0,0,.47.28.42.42,0,0,0,.33-.16l0,0v0c.4-1.28,1.7-4.49,3.09-4.77,0,.13,0,.33,0,.5-.05,1.06-.14,3,.9,3.94a2.2,2.2,0,0,0,1.52.53,2.32,2.32,0,0,0,2-1.69,2.29,2.29,0,0,0,2.33,1.71c1.38,0,2.34-1.38,3-2.81a3.69,3.69,0,0,0,1,2.19,2.52,2.52,0,0,0,1.74.62,3.52,3.52,0,0,0,2.62-1.93c.88,2.11,2.58,1.51,3.51,1a2.57,2.57,0,0,0,2,1,4.31,4.31,0,0,0,2.8-1.5,4.09,4.09,0,0,1,2-1.25c-.7,1-1.23,1.91-1,2.44a.52.52,0,0,0,.48.29.56.56,0,0,0,.38-.19.91.91,0,0,1,.8-.3,13,13,0,0,1,1.49.2,17.39,17.39,0,0,0,2.46.31,3.22,3.22,0,0,0,2.15-.84,2.15,2.15,0,0,0,1.66.82,2.49,2.49,0,0,0,2.1-1.2,3.59,3.59,0,0,0,.35-.61,3.18,3.18,0,0,0,.75,1,4.61,4.61,0,0,0,3.24,1.05.25.25,0,0,0,.23-.12.33.33,0,0,0,0-.15.44.44,0,0,0-.4-.46"/><path class="cls-2" d="M31.18,80.64c.26-.11.32-.45.14-.76a.66.66,0,0,0-.8-.35c-.26.11-.32.45-.14.76a.67.67,0,0,0,.8.35"/></g></g></svg>